<svg width="116" height="116" viewBox="0 0 116 116" fill="none" xmlns="http://www.w3.org/2000/svg">
<path d="M103.873 25.375H60.0391V14.1398C60.0399 13.205 59.8564 12.2792 59.4991 11.4154C59.1417 10.5515 58.6175 9.76669 57.9565 9.1057C57.2954 8.44471 56.5105 7.92057 55.6467 7.56327C54.7829 7.20597 53.8571 7.02253 52.9223 7.02344H14.1392C13.2045 7.02263 12.2788 7.20615 11.4151 7.5635C10.5513 7.92085 9.76656 8.44502 9.10563 9.106C8.4447 9.76698 7.92059 10.5518 7.5633 11.4156C7.20602 12.2793 7.02256 13.205 7.02344 14.1398V101.86C7.02511 103.747 7.77533 105.556 9.10943 106.89C10.4435 108.224 12.2525 108.975 14.1392 108.977H52.9222C54.8091 108.975 56.6183 108.225 57.9526 106.891C59.287 105.556 60.0373 103.747 60.0391 101.86V66.1562H103.874C105.227 66.1562 106.525 65.6186 107.482 64.6617C108.439 63.7047 108.977 62.4068 108.977 61.0534V30.4785C108.977 29.8083 108.845 29.1447 108.588 28.5255C108.332 27.9063 107.956 27.3437 107.482 26.8698C107.008 26.3959 106.445 26.0199 105.826 25.7635C105.207 25.507 104.543 25.375 103.873 25.375ZM28.4336 11.3463H38.6289C39.3049 11.3463 39.9532 11.6148 40.4312 12.0928C40.9092 12.5708 41.1777 13.2191 41.1777 13.8951C41.1777 14.5711 40.9092 15.2194 40.4312 15.6974C39.9532 16.1754 39.3049 16.4439 38.6289 16.4439H28.4336C27.7576 16.4439 27.1093 16.1754 26.6313 15.6974C26.1533 15.2194 25.8848 14.5711 25.8848 13.8951C25.8848 13.2191 26.1533 12.5708 26.6313 12.0928C27.1093 11.6148 27.7576 11.3463 28.4336 11.3463ZM38.6279 104.637H28.4326C27.7566 104.637 27.1083 104.368 26.6303 103.89C26.1523 103.412 25.8838 102.764 25.8838 102.088C25.8838 101.412 26.1523 100.764 26.6303 100.286C27.1083 99.8077 27.7566 99.5391 28.4326 99.5391H38.6279C39.3039 99.5391 39.9522 99.8077 40.4302 100.286C40.9082 100.764 41.1767 101.412 41.1767 102.088C41.1767 102.764 40.9082 103.412 40.4302 103.89C39.9522 104.368 39.3039 104.637 38.6279 104.637ZM55.5527 95.2129H11.5088V20.7871H55.5527V25.375H28.3917C27.0508 25.375 25.7649 25.9077 24.8167 26.8558C23.8686 27.8039 23.3359 29.0899 23.3359 30.4307V61.0958C23.3359 61.7603 23.4668 62.4184 23.7211 63.0323C23.9754 63.6463 24.3482 64.2042 24.8181 64.6741C25.288 65.144 25.8459 65.5167 26.4599 65.7711C27.0738 66.0254 27.7319 66.1563 28.3964 66.1562H37.6094V74.3462C37.6094 74.8446 37.7572 75.3318 38.0341 75.7462C38.311 76.1606 38.7045 76.4836 39.165 76.6743C39.6254 76.865 40.1321 76.9149 40.6209 76.8176C41.1097 76.7204 41.5587 76.4804 41.9111 76.128L51.8828 66.1562H55.5527V95.2129ZM50.0269 47.6212C50.6118 47.9608 51.0387 48.5181 51.2144 49.1713C51.3902 49.8245 51.3004 50.5207 50.9648 51.108C50.799 51.4001 50.5769 51.6564 50.3112 51.862C50.0456 52.0676 49.7418 52.2184 49.4174 52.3056C49.0931 52.3929 48.7546 52.4149 48.4217 52.3703C48.0888 52.3257 47.768 52.2155 47.478 52.0459L44.2363 50.17V53.9219C44.2363 54.5979 43.9678 55.2462 43.4898 55.7242C43.0118 56.2022 42.3635 56.4707 41.6875 56.4707C41.0115 56.4707 40.3632 56.2022 39.8852 55.7242C39.4072 55.2462 39.1387 54.5979 39.1387 53.9219V50.17L35.8959 52.0459C35.6059 52.2155 35.2851 52.3257 34.9522 52.3703C34.6193 52.4149 34.2808 52.3929 33.9565 52.3056C33.6321 52.2184 33.3283 52.0676 33.0627 51.862C32.797 51.6564 32.5749 51.4001 32.4091 51.108C32.074 50.5206 31.9845 49.8245 32.1602 49.1715C32.3359 48.5184 32.7625 47.9612 33.3471 47.6212L36.5898 45.7656L33.3471 43.8897C32.7603 43.5517 32.3319 42.9945 32.156 42.3406C31.9801 41.6867 32.0712 40.9897 32.4092 40.403C32.7472 39.8162 33.3044 39.3878 33.9583 39.2119C34.6122 39.036 35.3091 39.1271 35.8959 39.4651L39.1387 41.3409V37.6094C39.1387 36.9334 39.4072 36.2851 39.8852 35.8071C40.3632 35.3291 41.0115 35.0606 41.6875 35.0606C42.3635 35.0606 43.0118 35.3291 43.4898 35.8071C43.9678 36.2851 44.2363 36.9334 44.2363 37.6094V41.3409L47.4781 39.4651C48.0649 39.1271 48.7618 39.036 49.4157 39.2119C50.0696 39.3878 50.6268 39.8162 50.9648 40.403C51.3028 40.9897 51.3939 41.6867 51.218 42.3406C51.0421 42.9945 50.6137 43.5517 50.027 43.8897L46.7852 45.7656L50.0269 47.6212ZM74.4956 47.6212C75.0806 47.9608 75.5075 48.5181 75.6832 49.1713C75.8589 49.8245 75.7692 50.5207 75.4336 51.108C75.2678 51.4001 75.0456 51.6564 74.78 51.862C74.5144 52.0676 74.2106 52.2184 73.8862 52.3056C73.5618 52.3929 73.2234 52.4149 72.8904 52.3703C72.5575 52.3257 72.2368 52.2155 71.9468 52.0459L68.7051 50.17V53.9219C68.7051 54.5979 68.4365 55.2462 67.9585 55.7242C67.4805 56.2022 66.8322 56.4707 66.1562 56.4707C65.4803 56.4707 64.832 56.2022 64.354 55.7242C63.876 55.2462 63.6074 54.5979 63.6074 53.9219V50.17L60.3646 52.0459C60.0747 52.2155 59.7539 52.3257 59.421 52.3703C59.088 52.4149 58.7496 52.3929 58.4252 52.3056C58.1009 52.2184 57.7971 52.0676 57.5314 51.862C57.2658 51.6564 57.0436 51.4001 56.8778 51.108C56.5427 50.5206 56.4532 49.8245 56.6289 49.1715C56.8046 48.5184 57.2312 47.9612 57.8158 47.6212L61.0586 45.7656L57.8158 43.8897C57.2291 43.5517 56.8006 42.9945 56.6247 42.3406C56.4489 41.6867 56.5399 40.9897 56.8779 40.403C57.2159 39.8162 57.7731 39.3878 58.427 39.2119C59.0809 39.036 59.7779 39.1271 60.3646 39.4651L63.6074 41.3409V37.6094C63.6074 36.9334 63.876 36.2851 64.354 35.8071C64.832 35.3291 65.4803 35.0606 66.1562 35.0606C66.8322 35.0606 67.4805 35.3291 67.9585 35.8071C68.4365 36.2851 68.7051 36.9334 68.7051 37.6094V41.3409L71.9469 39.4651C72.5336 39.1271 73.2306 39.036 73.8845 39.2119C74.5384 39.3878 75.0956 39.8162 75.4336 40.403C75.7716 40.9897 75.8627 41.6867 75.6868 42.3406C75.5109 42.9945 75.0824 43.5517 74.4957 43.8897L71.2539 45.7656L74.4956 47.6212ZM98.9644 47.6212C99.5493 47.9608 99.9762 48.5181 100.152 49.1713C100.328 49.8245 100.238 50.5207 99.9023 51.108C99.7365 51.4001 99.5144 51.6564 99.2487 51.862C98.9831 52.0676 98.6793 52.2184 98.3549 52.3056C98.0306 52.3929 97.6921 52.4149 97.3592 52.3703C97.0263 52.3257 96.7055 52.2155 96.4155 52.0459L93.1738 50.17V53.9219C93.1738 54.5979 92.9053 55.2462 92.4273 55.7242C91.9493 56.2022 91.301 56.4707 90.625 56.4707C89.949 56.4707 89.3007 56.2022 88.8227 55.7242C88.3447 55.2462 88.0762 54.5979 88.0762 53.9219V50.17L84.8334 52.0459C84.5434 52.2155 84.2226 52.3257 83.8897 52.3703C83.5568 52.4149 83.2183 52.3929 82.894 52.3056C82.5696 52.2184 82.2658 52.0676 82.0002 51.862C81.7345 51.6564 81.5124 51.4001 81.3466 51.108C81.0115 50.5206 80.922 49.8245 81.0977 49.1715C81.2734 48.5184 81.7 47.9612 82.2846 47.6212L85.5273 45.7656L82.2846 43.8897C81.6978 43.5517 81.2694 42.9945 81.0935 42.3406C80.9176 41.6867 81.0087 40.9897 81.3467 40.403C81.6847 39.8162 82.2419 39.3878 82.8958 39.2119C83.5497 39.036 84.2466 39.1271 84.8334 39.4651L88.0762 41.3409V37.6094C88.0762 36.9334 88.3447 36.2851 88.8227 35.8071C89.3007 35.3291 89.949 35.0606 90.625 35.0606C91.301 35.0606 91.9493 35.3291 92.4273 35.8071C92.9053 36.2851 93.1738 36.9334 93.1738 37.6094V41.3409L96.4156 39.4651C96.7061 39.2977 97.0268 39.1892 97.3592 39.1458C97.6917 39.1023 98.0294 39.1248 98.3532 39.2119C98.677 39.299 98.9804 39.449 99.2462 39.6534C99.512 39.8577 99.735 40.1124 99.9023 40.403C100.07 40.6935 100.178 41.0141 100.222 41.3466C100.265 41.6791 100.243 42.0168 100.156 42.3406C100.068 42.6643 99.9184 42.9678 99.7141 43.2336C99.5097 43.4994 99.255 43.7223 98.9644 43.8897L95.7227 45.7656L98.9644 47.6212Z" fill="#F4F4F4"/>
</svg>
