<svg width="79" height="79" viewBox="0 0 79 79" fill="none" xmlns="http://www.w3.org/2000/svg">
<g filter="url(#filter0_dd_1_403)">
<circle cx="39.5" cy="39.5" r="26.5" fill="url(#paint0_linear_1_403)"/>
</g>
<path d="M34.62 38.79C36.06 41.62 38.38 43.93 41.21 45.38L43.41 43.18C43.68 42.91 44.08 42.82 44.43 42.94C45.55 43.31 46.76 43.51 48 43.51C48.55 43.51 49 43.96 49 44.51V48C49 48.55 48.55 49 48 49C38.61 49 31 41.39 31 32C31 31.45 31.45 31 32 31H35.5C36.05 31 36.5 31.45 36.5 32C36.5 33.25 36.7 34.45 37.07 35.57C37.18 35.92 37.1 36.31 36.82 36.59L34.62 38.79Z" fill="white"/>
<defs>
<filter id="filter0_dd_1_403" x="0" y="0" width="79" height="79" filterUnits="userSpaceOnUse" color-interpolation-filters="sRGB">
<feFlood flood-opacity="0" result="BackgroundImageFix"/>
<feColorMatrix in="SourceAlpha" type="matrix" values="0 0 0 0 0 0 0 0 0 0 0 0 0 0 0 0 0 0 127 0" result="hardAlpha"/>
<feOffset dx="3" dy="3"/>
<feGaussianBlur stdDeviation="5"/>
<feColorMatrix type="matrix" values="0 0 0 0 0.761944 0 0 0 0 0.814306 0 0 0 0 0.866667 0 0 0 1 0"/>
<feBlend mode="normal" in2="BackgroundImageFix" result="effect1_dropShadow_1_403"/>
<feColorMatrix in="SourceAlpha" type="matrix" values="0 0 0 0 0 0 0 0 0 0 0 0 0 0 0 0 0 0 127 0" result="hardAlpha"/>
<feOffset dx="-3" dy="-3"/>
<feGaussianBlur stdDeviation="5"/>
<feColorMatrix type="matrix" values="0 0 0 0 0.952941 0 0 0 0 0.980392 0 0 0 0 1 0 0 0 1 0"/>
<feBlend mode="normal" in2="effect1_dropShadow_1_403" result="effect2_dropShadow_1_403"/>
<feBlend mode="normal" in="SourceGraphic" in2="effect2_dropShadow_1_403" result="shape"/>
</filter>
<linearGradient id="paint0_linear_1_403" x1="44.1257" y1="-33.6204" x2="44.1257" y2="95.4444" gradientUnits="userSpaceOnUse">
<stop stop-color="#B6BB81"/>
<stop offset="1" stop-color="#009169"/>
</linearGradient>
</defs>
</svg>
