<svg width="162" height="73" viewBox="0 0 162 73" fill="none" xmlns="http://www.w3.org/2000/svg">
<rect width="162" height="73" rx="10" fill="white"/>
<path d="M87.9999 46.3334H71.6666V30H82.1666V27.6667H71.6666C70.3833 27.6667 69.3333 28.7167 69.3333 30V46.3334C69.3333 47.6167 70.3833 48.6667 71.6666 48.6667H87.9999C89.2833 48.6667 90.3333 47.6167 90.3333 46.3334V35.8334H87.9999V46.3334ZM78.9116 42.635L76.6249 39.8817L73.4166 44H86.2499L82.1199 38.505L78.9116 42.635ZM90.3333 27.6667V24.1667H87.9999V27.6667H84.4999C84.5116 27.6784 84.4999 30 84.4999 30H87.9999V33.4884C88.0116 33.5 90.3333 33.4884 90.3333 33.4884V30H93.8333V27.6667H90.3333Z" fill="#8B9EB0"/>
</svg>
