<svg width="167" height="95" viewBox="0 0 167 95" fill="none" xmlns="http://www.w3.org/2000/svg">
<path d="M156.9 12L142.5 12.5H139.1L137.6 27L139.9 30.9L153.4 26.1L157.4 25.6" fill="#F79428"/>
<path d="M128.9 13.3V38.6H141.9L154.4 26.1H141.6V1L128.9 13.3Z" fill="#F1592A"/>
<path d="M167 25.3V0H154L141.5 12.5H154.2V37.6L167 25.3Z" fill="#FECC40"/>
<path d="M37.2 86.6001H39V94.3001H37.7999V88.0001L35.4 94.3001H34.2999L31.9 88.0001V94.3001H30.7V86.6001H32.5L34.9 92.8001L37.2 86.6001Z" fill="#C1962B"/>
<path d="M44.9 88.8H46V94.3H44.9V93.5C44.4 94.1 43.7 94.4 42.9 94.4C42.1 94.4 41.5 94.1001 41 93.6001C40.5 93.1001 40.2 92.4001 40.2 91.6001C40.2 90.8001 40.5 90.1001 41 89.6001C41.5 89.1001 42.2 88.8 42.9 88.8C43.7 88.8 44.4 89.1 44.9 89.7V88.8ZM44.4 92.9C44.7 92.6 44.9 92.1001 44.9 91.6001C44.9 91.1001 44.7 90.6 44.4 90.3C44.1 90 43.5999 89.8 43.0999 89.8C42.5999 89.8 42.1999 90 41.7999 90.3C41.4999 90.6 41.2999 91.1001 41.2999 91.6001C41.2999 92.1001 41.4999 92.6 41.7999 92.9C42.0999 93.2 42.4999 93.4 43.0999 93.4C43.5999 93.4 44 93.2 44.4 92.9Z" fill="#C1962B"/>
<path d="M52.1999 88.8001L49.6999 91.4001L52.1999 94.3001H50.7999L48.4999 91.6001V94.3001H47.3999V86.6001H48.4999V91.3001L50.7999 88.8001H52.1999Z" fill="#C1962B"/>
<path d="M58.4 91.9H53.7C53.8 92.8 54.6 93.5 55.5 93.5C56.3 93.5 57 93 57.2 92.3H58.4C58.2 92.9 57.9 93.4 57.4 93.8C56.9 94.2 56.3 94.4 55.6 94.4C54.8 94.4 54 94.1001 53.5 93.6001C52.9 93.1001 52.7 92.4001 52.7 91.6001C52.7 90.8001 53 90.1001 53.5 89.6001C54 89.1001 54.8 88.8 55.6 88.8C56.4 88.8 57.2 89.1001 57.7 89.6001C58.2 90.1001 58.5 90.8 58.5 91.7C58.4 91.7 58.4 91.8 58.4 91.9ZM55.5 89.6001C55.1 89.6001 54.7 89.7 54.3 90C54 90.3 53.8 90.6 53.7 91H57.3C57.2 90.6 57 90.3 56.7 90C56.4 89.8 56 89.6001 55.5 89.6001Z" fill="#C1962B"/>
<path d="M69.2 86.6001L66.2 91.1001V94.3001H65V91.1001L62 86.6001H63.4L65.6 90.1001L67.8 86.6001H69.2Z" fill="#C1962B"/>
<path d="M71.1 88.7C71.9 88.7 72.7 89 73.2 89.5C73.7 90 74 90.7 74 91.5C74 92.3 73.7 93 73.2 93.5C72.7 94 71.9 94.3 71.1 94.3C70.3 94.3 69.5 94 69 93.5C68.4 93 68.2 92.3 68.2 91.5C68.2 90.7 68.5 90 69 89.5C69.6 89 70.3 88.7 71.1 88.7ZM69.9 90.2C69.6 90.5 69.4 91 69.4 91.5C69.4 92 69.6 92.5 69.9 92.8C70.2 93.1 70.6 93.3 71.2 93.3C71.7 93.3 72.1 93.1 72.5 92.8C72.8 92.5 73 92 73 91.5C73 91 72.8 90.5 72.5 90.2C72.2 89.9 71.7 89.7 71.2 89.7C70.6 89.7 70.2 89.9 69.9 90.2Z" fill="#C1962B"/>
<path d="M80.1 88.8V92C80.1 92.7 79.9 93.3 79.4 93.7C78.9 94.1 78.3 94.4 77.6 94.4C76.9 94.4 76.2 94.2 75.8 93.7C75.3 93.3 75.1 92.7 75.1 92V88.8H76.2V92C76.2 92.9 76.7 93.4 77.6 93.4C78.4 93.4 79 92.8 79 92V88.8H80.1Z" fill="#C1962B"/>
<path d="M82.6 90.1C83 89.2 83.7 88.7 84.7 88.7V89.8C83.4 89.8 82.6 90.5 82.6 91.6V94.3H81.5V88.8H82.6V90.1Z" fill="#C1962B"/>
<path d="M89.9 93.2001H93.7V94.3001H88.7V86.6001H89.9V93.2001Z" fill="#C1962B"/>
<path d="M95.0999 88.0001C94.6999 88.0001 94.3999 87.7001 94.3999 87.3001C94.3999 86.9001 94.6999 86.6001 95.0999 86.6001C95.4999 86.6001 95.7999 86.9001 95.7999 87.3001C95.7999 87.7001 95.4999 88.0001 95.0999 88.0001ZM94.4999 88.8001H95.5999V94.3001H94.4999V88.8001Z" fill="#C1962B"/>
<path d="M98.6 88.1V88.8H99.7V89.8H98.6V94.3H97.5V89.8H96.7V88.8H97.5V88.1C97.5 87.2 98.2 86.5 99.3 86.5C99.5 86.5 99.6 86.5 99.7 86.5V87.5C99.6 87.4 99.4 87.4 99.3 87.4C98.8 87.4 98.6 87.7 98.6 88.1Z" fill="#C1962B"/>
<path d="M106 91.9H101.3C101.4 92.8 102.2 93.5 103.1 93.5C103.9 93.5 104.6 93 104.8 92.3H106C105.8 92.9 105.5 93.4 105 93.8C104.5 94.2 103.9 94.4 103.2 94.4C102.4 94.4 101.6 94.1001 101.1 93.6001C100.5 93.1001 100.3 92.4001 100.3 91.6001C100.3 90.8001 100.6 90.1001 101.1 89.6001C101.6 89.1001 102.4 88.8 103.2 88.8C104 88.8 104.8 89.1001 105.3 89.6001C105.8 90.1001 106.1 90.8 106.1 91.7C106 91.7 106 91.8 106 91.9ZM103.1 89.6001C102.7 89.6001 102.3 89.7 101.9 90C101.6 90.3 101.4 90.6 101.3 91H104.9C104.8 90.6 104.6 90.3 104.3 90C103.9 89.8 103.5 89.6001 103.1 89.6001Z" fill="#C1962B"/>
<path d="M115.6 87.6H111.5V89.8H115.3V90.8H111.5V93.1H115.6V94.2H110.3V86.5H115.6V87.6Z" fill="#C1962B"/>
<path d="M121.2 88.8H122.3V94.3H121.2V93.5C120.7 94.1 120 94.4 119.2 94.4C118.4 94.4 117.8 94.1001 117.3 93.6001C116.8 93.1001 116.5 92.4001 116.5 91.6001C116.5 90.8001 116.8 90.1001 117.3 89.6001C117.8 89.1001 118.5 88.8 119.2 88.8C120 88.8 120.7 89.1 121.2 89.7V88.8ZM120.7 92.9C121 92.6 121.2 92.1001 121.2 91.6001C121.2 91.1001 121 90.6 120.7 90.3C120.4 90 119.9 89.8 119.4 89.8C118.9 89.8 118.5 90 118.1 90.3C117.8 90.6 117.6 91.1001 117.6 91.6001C117.6 92.1001 117.8 92.6 118.1 92.9C118.4 93.2 118.8 93.4 119.4 93.4C119.9 93.4 120.4 93.2 120.7 92.9Z" fill="#C1962B"/>
<path d="M127.3 89.2C127.7 89.5 127.9 89.8999 127.9 90.3999H126.8C126.8 89.8999 126.3 89.6 125.7 89.6C125.1 89.6 124.7 89.9 124.7 90.3C124.7 90.6 124.8 90.7999 125.2 90.8999C125.4 90.9999 125.5 91 125.9 91.1C126.4 91.2 126.5 91.1999 127 91.3999C127.2 91.4999 127.4 91.6 127.6 91.7C127.9 91.9 128.1 92.3 128.1 92.8C128.1 93.3 127.9 93.7 127.5 94C127.1 94.3 126.5 94.5 125.9 94.5C125.3 94.5 124.7 94.3 124.3 94C123.9 93.7 123.7 93.3 123.7 92.8H124.8C124.8 93.3 125.3 93.7 126 93.7C126.6 93.7 127.1 93.3999 127.1 92.8999C127.1 92.5999 127 92.4 126.7 92.3C126.4 92.2 126.3 92.2 125.9 92.1C125.5 92 125.2 92 124.8 91.8C124.6 91.7 124.4 91.6 124.3 91.5C124 91.3 123.8 90.8999 123.8 90.3999C123.8 89.3999 124.7 88.7 126 88.7C126.4 88.7 126.9 88.8 127.3 89.2Z" fill="#C1962B"/>
<path d="M129.8 88.0001C129.4 88.0001 129.1 87.7001 129.1 87.3001C129.1 86.9001 129.4 86.6001 129.8 86.6001C130.2 86.6001 130.5 86.9001 130.5 87.3001C130.5 87.7001 130.2 88.0001 129.8 88.0001ZM129.2 88.8001H130.3V94.3001H129.2V88.8001Z" fill="#C1962B"/>
<path d="M137.3 91.9H132.6C132.7 92.8 133.5 93.5 134.4 93.5C135.2 93.5 135.9 93 136.1 92.3H137.3C137.1 92.9 136.8 93.4 136.3 93.8C135.8 94.2 135.2 94.4 134.5 94.4C133.7 94.4 132.9 94.1001 132.4 93.6001C131.8 93.1001 131.6 92.4001 131.6 91.6001C131.6 90.8001 131.9 90.1001 132.4 89.6001C132.9 89.1001 133.7 88.8 134.5 88.8C135.3 88.8 136.1 89.1001 136.6 89.6001C137.1 90.1001 137.4 90.8 137.4 91.7C137.3 91.7 137.3 91.8 137.3 91.9ZM134.4 89.6001C134 89.6001 133.6 89.7 133.2 90C132.9 90.3 132.7 90.6 132.6 91H136.2C136.1 90.6 135.9 90.3 135.6 90C135.2 89.8 134.8 89.6001 134.4 89.6001Z" fill="#C1962B"/>
<path d="M139.5 90.1C139.9 89.2 140.6 88.7 141.6 88.7V89.8C140.3 89.8 139.5 90.5 139.5 91.6V94.3H138.4V88.8H139.5V90.1Z" fill="#C1962B"/>
<path d="M48.4 48.8H55.9L64.2 61.2L72.5 48.8H80V51V82.7H78.5H72.5V73.6V62.2L68.7 67.9L64.2 74.6L59.7 67.9L55.9 62.2V73.6V82.7H49.8H48.4V51.1V48.8Z" fill="#009B71"/>
<path d="M83.4 82.7C89.1 71.4 94.9 60.1 100.6 48.7L117.8 82.7H109.4L106.9 77.8H94.3L91.8 82.7H83.4ZM103.1 70.4L100.6 65.4L98 70.4H103.1Z" fill="#009B71"/>
<path d="M124.2 66.9C124.2 71.5 127.9 75.2 132.5 75.2H148.3V82.7H132.5C129.5 82.7 126.6 81.8 124.2 80.3C122.1 79 120.4 77.3 119.1 75.2C117.6 72.8 116.7 69.9 116.7 66.9V64.5C116.7 61.5 117.6 58.6 119.1 56.2C122 51.6 127 48.7 132.5 48.7H148.3V56.2H132.5C127.9 56.2 124.2 60 124.2 64.5V66.9Z" fill="#009B71"/>
<path d="M159.2 48.8V82.8H151.7V48.8H159.2Z" fill="#009B71"/>
<path d="M14 47.1C11.9 47.1 10.1 48.9 10.1 51C10.1 53.1 11.9 54.9 14 54.9H28.6C32.9 54.9 36.8 56.9 39.3 59.9C40.5 61.4 41.4 63.1 42 64.9C42.4 66.1 42.6 67.4 42.6 68.8C42.6 76.5 36.3 82.8 28.7 82.8H20.7H2.7V72.7H10.1H20.6H28.6C30.7 72.7 32.5 70.9 32.5 68.8C32.5 66.7 30.8 65 28.7 64.9H13.9C12.6 64.9 11.3 64.7 10.1 64.3C7.4 63.5 5 61.9 3.3 59.8C2.1 58.3 1.1 56.6 0.6 54.8C0.3 53.6 0.1 52.3 0 51V50.9C0 44.6 4.3 39.3 10.1 37.6C11.3 37.2 12.7 37 14 37H21.9H39.8V47.1H32.5H21.9H14Z" fill="#009B71"/>
</svg>
