<svg width="363" height="373" viewBox="0 0 363 373" fill="none" xmlns="http://www.w3.org/2000/svg">
<g filter="url(#filter0_dd_101_1065)">
<path d="M286.5 83.9999C336.622 112.938 328.87 187.242 297.582 241.436C266.293 295.63 141.708 326.761 91.5857 297.823C41.4637 268.885 26.1963 201.494 57.485 147.3C88.7737 93.1066 236.378 55.062 286.5 83.9999Z" fill="white"/>
</g>
<g clip-path="url(#clip0_101_1065)">
<path d="M242.379 143.284C219.973 126.125 188.8 125.424 166.058 142.142C154.036 150.98 144.716 164.501 146.412 185.088C147.011 192.37 148.679 198.344 151.113 203.235C160.969 223.06 201.453 222.297 203.702 222.294C205.158 222.292 206.615 222.325 208.072 222.391C213.174 222.623 218.249 223.261 223.249 224.297C230.378 225.773 239.453 226.515 247.561 223.719C248.939 223.246 250.278 222.668 251.565 221.99C256.021 219.637 261.01 217.389 263.926 211.809C266.117 207.621 267.714 202.37 268.482 195.83C271.279 172.011 257.304 154.713 242.379 143.284Z" fill="#F2F2F2"/>
<path d="M208.17 228.651C243.556 228.651 272.242 225.976 272.242 222.676C272.242 219.376 243.556 216.701 208.17 216.701C172.784 216.701 144.098 219.376 144.098 222.676C144.098 225.976 172.784 228.651 208.17 228.651Z" fill="#3F3D56"/>
<path opacity="0.1" d="M205.04 225.48C237.951 225.48 264.632 224.225 264.632 222.676C264.632 221.127 237.951 219.871 205.04 219.871C172.128 219.871 145.448 221.127 145.448 222.676C145.448 224.225 172.128 225.48 205.04 225.48Z" fill="black"/>
<path d="M238.007 142.652V149.356H229.222V222.462H247.555V152.138V149.356V142.652H238.007Z" fill="#575A89"/>
<path d="M189.628 187.68V176.17H178.424V187.68H174.223V222.589H193.702V187.68H189.628Z" fill="#575A89"/>
<path d="M191.537 206.399H176.387V222.715H191.537V206.399Z" fill="#3F3D56"/>
<path opacity="0.1" d="M178.806 206.399H176.387V222.715H178.806V206.399Z" fill="black"/>
<path d="M222.729 138.984V142.905H200.322V138.984H193.702V222.715H229.222V138.984H222.729Z" fill="#3F3D56"/>
<path opacity="0.1" d="M227.694 138.984H222.729V142.905H227.694V138.984Z" fill="black"/>
<path opacity="0.1" d="M198.667 138.984H193.702V222.715H198.667V138.984Z" fill="black"/>
<path d="M168.367 162.889V159.727H165.056V162.889H159.073V222.715H174.223V162.889H168.367Z" fill="#3F3D56"/>
<path opacity="0.1" d="M166.839 159.727H165.056V162.889H166.839V159.727Z" fill="black"/>
<path opacity="0.1" d="M160.855 162.889H159.073V222.715H160.855V162.889Z" fill="black"/>
<path opacity="0.1" d="M227.694 171.237H222.729V222.715H227.694V171.237Z" fill="black"/>
<path opacity="0.1" d="M174.223 162.889H169.639V173.893H174.223V162.889Z" fill="black"/>
<path d="M206.306 149.609H199.176V152.644H206.306V149.609Z" fill="#FF6584"/>
<path d="M221.456 180.85H214.326V183.885H221.456V180.85Z" fill="#FF6584"/>
<path d="M206.306 202.731H199.176V205.767H206.306V202.731Z" fill="#FF6584"/>
<path d="M170.276 176.549H163.146V179.585H170.276V176.549Z" fill="#FF6584"/>
<path d="M187.591 208.17H180.461V211.205H187.591V208.17Z" fill="#FF6584"/>
<path opacity="0.1" d="M190.137 190.336H177.915V195.395H190.137V190.336Z" fill="black"/>
<path opacity="0.1" d="M243.609 155.174H231.386V160.233H243.609V155.174Z" fill="black"/>
<path opacity="0.1" d="M243.609 165.925H231.386V170.984H243.609V165.925Z" fill="black"/>
<path opacity="0.1" d="M243.609 176.676H231.386V181.735H243.609V176.676Z" fill="black"/>
<path opacity="0.1" d="M243.609 187.427H231.386V192.486H243.609V187.427Z" fill="black"/>
<path opacity="0.1" d="M243.609 198.178H231.386V203.237H243.609V198.178Z" fill="black"/>
<path opacity="0.1" d="M243.609 208.929H231.386V213.988H243.609V208.929Z" fill="black"/>
<path d="M251.756 178.067V164.281H242.844V178.067H239.662V222.715H254.812V178.067H251.756Z" fill="#3F3D56"/>
<path opacity="0.1" d="M245.646 164.281H242.845V178.067H245.646V164.281Z" fill="black"/>
<path opacity="0.1" d="M242.463 178.067H239.662V222.715H242.463V178.067Z" fill="black"/>
<path opacity="0.1" d="M254.812 200.455H247.301V204.881H254.812V200.455Z" fill="black"/>
<path d="M254.685 193.877H247.555V196.913H254.685V193.877Z" fill="#FF6584"/>
<path d="M277 196.942C277 208.211 270.257 212.145 261.939 212.145C253.621 212.145 246.878 208.211 246.878 196.942C246.878 185.674 261.939 171.338 261.939 171.338C261.939 171.338 277 185.674 277 196.942Z" fill="#F68C24"/>
<path d="M261.391 210.421L261.545 200.99L267.964 189.323L261.569 199.511L261.638 195.271L266.062 186.83L261.657 194.149L261.781 186.522L266.519 179.802L261.801 185.323L261.879 171.338L261.389 189.851L261.429 189.087L256.613 181.763L261.352 190.554L260.903 199.071L260.89 198.845L255.337 191.137L260.873 199.644L260.817 200.709L260.807 200.725L260.812 200.812L259.673 222.422H261.194L261.377 211.26L266.899 202.775L261.391 210.421Z" fill="#3F3D56"/>
<path d="M166.621 197.064C166.621 208.332 159.878 212.267 151.56 212.267C143.242 212.267 136.499 208.332 136.499 197.064C136.499 185.795 151.56 171.46 151.56 171.46C151.56 171.46 166.621 185.795 166.621 197.064Z" fill="#F68C24"/>
<path d="M151.011 210.543L151.165 201.113L157.585 189.445L151.19 199.633L151.259 195.393L155.683 186.952L151.277 194.27V194.271L151.402 186.644L156.14 179.924L151.422 185.445L151.5 171.46L151.01 189.973L151.05 189.209L146.233 181.885L150.973 190.675L150.524 199.193L150.511 198.967L144.958 191.259L150.494 199.766L150.438 200.831L150.428 200.847L150.432 200.934L149.294 222.544H150.815L150.997 211.382L156.52 202.897L151.011 210.543Z" fill="#3F3D56"/>
<path d="M117.944 246C137.795 246 153.888 243.838 153.888 241.17C153.888 238.502 137.795 236.34 117.944 236.34C98.0926 236.34 82 238.502 82 241.17C82 243.838 98.0926 246 117.944 246Z" fill="#3F3D56"/>
<path opacity="0.1" d="M117.944 244.95C133.48 244.95 146.074 243.258 146.074 241.17C146.074 239.082 133.48 237.39 117.944 237.39C102.408 237.39 89.814 239.082 89.814 241.17C89.814 243.258 102.408 244.95 117.944 244.95Z" fill="black"/>
<path d="M112.861 172.399C117.078 172.399 120.497 169.002 120.497 164.813C120.497 160.623 117.078 157.227 112.861 157.227C108.644 157.227 105.226 160.623 105.226 164.813C105.226 169.002 108.644 172.399 112.861 172.399Z" fill="#2F2E41"/>
<path d="M114.947 171.603C117.307 171.603 119.22 169.702 119.22 167.357C119.22 165.013 117.307 163.112 114.947 163.112C112.586 163.112 110.673 165.013 110.673 167.357C110.673 169.702 112.586 171.603 114.947 171.603Z" fill="#FFB9B9"/>
<path d="M112.556 169.588C112.556 169.588 113.643 172.179 111.977 172.898C110.311 173.618 110.963 177.864 110.963 177.864L117.482 176.496C117.482 176.496 117.482 174.697 116.178 173.906C114.874 173.114 117.916 169.588 117.916 169.588H112.556Z" fill="#FFB9B9"/>
<path d="M110.456 188.73L110.673 191.104L120.452 192.759L119.51 188.37L110.456 188.73Z" fill="#FFB9B9"/>
<path d="M110.311 207.799L110.673 217.873C110.673 217.873 108.935 221.975 110.311 229.531C111.687 237.087 110.673 239.173 110.673 239.173L115.599 239.821L115.309 237.015L114.15 234.568L114.657 220.608C114.657 220.608 116.902 215.427 116.975 214.419C117.047 213.412 116.83 206.072 116.83 206.072L110.311 207.799Z" fill="#FFB9B9"/>
<path opacity="0.1" d="M110.311 207.799L110.673 217.873C110.673 217.873 108.935 221.975 110.311 229.531C111.687 237.087 110.673 239.173 110.673 239.173L115.599 239.821L115.309 237.015L114.15 234.568L114.657 220.608C114.657 220.608 116.902 215.427 116.975 214.419C117.047 213.412 116.83 206.072 116.83 206.072L110.311 207.799Z" fill="black"/>
<path d="M111.832 235.719C111.832 235.719 111.832 234.784 111.397 234.712C110.963 234.64 110.383 234.424 110.383 234.712C110.383 235 110.311 237.015 110.166 237.303C110.021 237.59 109.731 238.67 109.949 239.102C109.949 239.102 109.297 240.757 109.804 240.901C110.311 241.045 113.208 241.045 113.208 241.045L113.353 240.253C113.353 240.253 119.8 242.268 121.176 240.469C121.176 240.469 121.828 239.174 120.669 238.886C120.669 238.886 118.061 238.958 117.12 237.878C116.178 236.799 114.367 234.28 114.367 234.28C114.367 234.28 112.919 234.496 113.063 235.432V235.719H111.832Z" fill="#2F2E41"/>
<path d="M114.295 208.015C114.295 208.015 115.019 213.052 117.554 216.722C117.554 216.722 118.858 219.744 118.641 220.68C118.423 221.615 118.423 226.724 120.596 231.258L122.624 237.878L123.639 240.253L125.377 240.972L128.202 241.188L126.608 237.878L125.811 236.151C125.811 236.151 124.363 233.201 124.363 230.61C124.363 228.02 123.421 221.903 123.421 221.903C123.421 221.903 123.421 208.087 121.9 207.223C120.379 206.36 114.295 208.015 114.295 208.015Z" fill="#FFB9B9"/>
<path d="M111.035 190.385L110.311 190.241V193.479C110.311 193.479 110.021 195.998 109.369 196.501C108.718 197.005 106.182 206.935 107.052 207.511C107.921 208.087 119.582 211.109 122.407 208.015L120.452 198.588C120.452 198.588 120.597 192.112 120.452 192.112C120.307 192.112 111.035 190.385 111.035 190.385Z" fill="#2F2E41"/>
<path d="M117.916 175.849C117.916 175.849 114.295 173.402 110.673 176.568C110.673 176.568 109.369 181.893 109.152 183.189C108.935 184.484 107.558 189.809 108.573 190.313C109.587 190.816 109.587 189.089 112.194 189.449C114.802 189.809 120.379 189.665 120.379 189.233C120.379 188.801 119.075 185.347 119.582 184.772C120.089 184.196 120.959 181.462 120.089 180.094C119.22 178.727 117.916 175.849 117.916 175.849Z" fill="#F68C24"/>
<path d="M113.208 190.385L120.452 193.767C120.452 193.767 123.349 197.437 124.001 195.35C124.653 193.263 121.828 191.752 121.828 191.752L116.975 189.017L113.208 190.241L113.208 190.385Z" fill="#FFB9B9"/>
<path opacity="0.1" d="M113.715 176.568C113.715 176.568 109.587 189.233 113.353 191.248C117.12 193.263 117.699 189.449 117.699 189.449C117.699 189.449 115.164 187.866 115.961 185.923C116.757 183.98 117.482 176.568 117.482 176.568L113.715 176.568Z" fill="black"/>
<path d="M113.498 176.136C113.498 176.136 109.369 188.801 113.136 190.816C116.902 192.831 117.482 189.017 117.482 189.017C117.482 189.017 114.947 187.434 115.743 185.491C116.54 183.548 117.264 176.136 117.264 176.136L113.498 176.136Z" fill="#F68C24"/>
<path d="M123.453 237.199C123.453 237.199 123.38 236.219 122.919 236.177C122.458 236.135 121.835 235.953 121.857 236.255C121.879 236.556 121.96 238.672 121.831 238.985C121.701 239.297 121.482 240.45 121.743 240.885C121.743 240.885 121.189 242.669 121.731 242.781C122.273 242.893 125.308 242.67 125.308 242.67L125.398 241.83C125.398 241.83 132.307 243.446 133.608 241.456C133.608 241.456 134.19 240.05 132.954 239.837C132.954 239.837 130.229 240.113 129.159 239.054C128.088 237.996 125.996 235.497 125.996 235.497C125.996 235.497 124.496 235.834 124.72 236.803L124.742 237.104L123.453 237.199Z" fill="#2F2E41"/>
<path d="M114.938 167.341C117.786 167.341 120.095 166.12 120.095 164.613C120.095 163.106 117.786 161.885 114.938 161.885C112.089 161.885 109.78 163.106 109.78 164.613C109.78 166.12 112.089 167.341 114.938 167.341Z" fill="#2F2E41"/>
<path d="M110.651 169.205C111.058 169.205 111.388 168.698 111.388 168.073C111.388 167.449 111.058 166.942 110.651 166.942C110.244 166.942 109.914 167.449 109.914 168.073C109.914 168.698 110.244 169.205 110.651 169.205Z" fill="#FFB9B9"/>
<path d="M108.173 160.82C110.17 160.82 111.79 159.212 111.79 157.227C111.79 155.243 110.17 153.634 108.173 153.634C106.175 153.634 104.556 155.243 104.556 157.227C104.556 159.212 106.175 160.82 108.173 160.82Z" fill="#2F2E41"/>
</g>
<defs>
<filter id="filter0_dd_101_1065" x="28.2393" y="61.0354" width="307.343" height="260.828" filterUnits="userSpaceOnUse" color-interpolation-filters="sRGB">
<feFlood flood-opacity="0" result="BackgroundImageFix"/>
<feColorMatrix in="SourceAlpha" type="matrix" values="0 0 0 0 0 0 0 0 0 0 0 0 0 0 0 0 0 0 127 0" result="hardAlpha"/>
<feOffset dx="3" dy="3"/>
<feGaussianBlur stdDeviation="5"/>
<feColorMatrix type="matrix" values="0 0 0 0 0.761944 0 0 0 0 0.814306 0 0 0 0 0.866667 0 0 0 1 0"/>
<feBlend mode="normal" in2="BackgroundImageFix" result="effect1_dropShadow_101_1065"/>
<feColorMatrix in="SourceAlpha" type="matrix" values="0 0 0 0 0 0 0 0 0 0 0 0 0 0 0 0 0 0 127 0" result="hardAlpha"/>
<feOffset dx="-3" dy="-3"/>
<feGaussianBlur stdDeviation="5"/>
<feColorMatrix type="matrix" values="0 0 0 0 0.952941 0 0 0 0 0.980392 0 0 0 0 1 0 0 0 1 0"/>
<feBlend mode="normal" in2="effect1_dropShadow_101_1065" result="effect2_dropShadow_101_1065"/>
<feBlend mode="normal" in="SourceGraphic" in2="effect2_dropShadow_101_1065" result="shape"/>
</filter>
<clipPath id="clip0_101_1065">
<rect width="195" height="116" fill="white" transform="translate(82 130)"/>
</clipPath>
</defs>
</svg>
