<svg width="236" height="236" viewBox="0 0 236 236" fill="none" xmlns="http://www.w3.org/2000/svg">
<path d="M236 180.493H0V180.611H236V180.493Z" fill="#E6E6E6"/>
<path d="M210.314 183.528H199.34V183.646H210.314V183.528Z" fill="#E6E6E6"/>
<path d="M170.392 186.091H118.269V186.209H170.392V186.091Z" fill="#E6E6E6"/>
<path d="M95.9719 186.152H90.8601V186.27H95.9719V186.152Z" fill="#E6E6E6"/>
<path d="M54.5442 184.736H36.8159V184.854H54.5442V184.736Z" fill="#E6E6E6"/>
<path d="M194.771 183.528H184.396V183.646H194.771V183.528Z" fill="#E6E6E6"/>
<path d="M32.9646 184.736H24.3789V184.854H32.9646V184.736Z" fill="#E6E6E6"/>
<path d="M111.864 159.442H20.7256C20.0116 159.44 19.3273 159.156 18.8229 158.651C18.3185 158.145 18.0352 157.46 18.0352 156.746V28.6315C18.0414 27.9216 18.3274 27.2428 18.8312 26.7426C19.3349 26.2424 20.0157 25.9612 20.7256 25.96H111.864C112.579 25.96 113.264 26.2439 113.77 26.7493C114.275 27.2548 114.559 27.9403 114.559 28.6551V156.746C114.559 157.461 114.275 158.147 113.77 158.652C113.264 159.158 112.579 159.442 111.864 159.442ZM20.7256 26.0544C20.0429 26.0556 19.3886 26.3277 18.9063 26.8108C18.424 27.294 18.1532 27.9488 18.1532 28.6315V156.746C18.1532 157.429 18.424 158.084 18.9063 158.567C19.3886 159.05 20.0429 159.322 20.7256 159.324H111.864C112.547 159.322 113.202 159.05 113.685 158.567C114.168 158.084 114.44 157.43 114.441 156.746V28.6315C114.44 27.9484 114.168 27.2936 113.685 26.8106C113.202 26.3275 112.547 26.0556 111.864 26.0544H20.7256Z" fill="#E6E6E6"/>
<path d="M213.962 159.442H122.819C122.105 159.44 121.42 159.156 120.915 158.651C120.41 158.146 120.125 157.461 120.124 156.746V28.6315C120.131 27.9212 120.419 27.2424 120.923 26.7423C121.428 26.2423 122.109 25.9612 122.819 25.96H213.962C214.671 25.9624 215.351 26.2442 215.854 26.7443C216.356 27.2444 216.642 27.9224 216.648 28.6315V156.746C216.648 157.46 216.365 158.144 215.862 158.649C215.359 159.154 214.675 159.439 213.962 159.442ZM122.819 26.0544C122.136 26.0556 121.481 26.3275 120.998 26.8106C120.515 27.2936 120.243 27.9484 120.242 28.6315V156.746C120.243 157.43 120.515 158.084 120.998 158.567C121.481 159.05 122.136 159.322 122.819 159.324H213.962C214.645 159.322 215.3 159.05 215.783 158.567C216.266 158.084 216.538 157.43 216.539 156.746V28.6315C216.538 27.9484 216.266 27.2936 215.783 26.8106C215.3 26.3275 214.645 26.0556 213.962 26.0544H122.819Z" fill="#E6E6E6"/>
<path d="M152.725 96.8166H188.394V34.7155L152.725 34.7155V96.8166Z" fill="#E6E6E6"/>
<path d="M150.799 96.8166H186.468V34.7155L150.799 34.7155V96.8166Z" fill="#F5F5F5"/>
<path d="M183.004 93.9044V37.6326H154.254V93.9044H183.004Z" fill="#FAFAFA"/>
<path d="M155.713 93.9044V37.6326H154.254V93.9044H155.713Z" fill="#E6E6E6"/>
<path d="M152.229 80.3202H185.038V76.4073H152.229V80.3202Z" fill="#F5F5F5"/>
<path d="M92.1061 96.8166H127.775L127.775 34.7155L92.1061 34.7155V96.8166Z" fill="#E6E6E6"/>
<path d="M90.1803 96.8166H125.849L125.849 34.7155L90.1803 34.7155V96.8166Z" fill="#F5F5F5"/>
<path d="M122.39 93.9044V37.6326H93.6401V93.9044H122.39Z" fill="#FAFAFA"/>
<path d="M95.0938 93.8996V37.6278H93.6353V93.8996H95.0938Z" fill="#E6E6E6"/>
<path d="M91.6105 80.3202H124.419V76.4073H91.6105V80.3202Z" fill="#F5F5F5"/>
<path d="M31.4918 96.8166H67.1609L67.1609 34.7155L31.4918 34.7155L31.4918 96.8166Z" fill="#E6E6E6"/>
<path d="M29.5661 96.8166H65.2351L65.2351 34.7155L29.5661 34.7155L29.5661 96.8166Z" fill="#F5F5F5"/>
<path d="M61.7708 93.8996V37.6278H33.0212V93.8996H61.7708Z" fill="#FAFAFA"/>
<path d="M34.4795 93.9044V37.6326H33.021V93.9044H34.4795Z" fill="#E6E6E6"/>
<path d="M30.9962 80.3202H63.8049V76.4073H30.9962V80.3202Z" fill="#F5F5F5"/>
<path d="M66.0799 135.237C59.6466 136.125 55.6676 122.144 69.8559 110.306C69.1149 124.008 77.3041 133.689 66.0799 135.237Z" fill="#E6E6E6"/>
<path d="M61.3601 153.546C52.0334 147.009 58.4148 124.169 87.2776 125.826C74.7979 142.638 77.6252 164.94 61.3601 153.546Z" fill="#E0E0E0"/>
<path d="M64.6641 153.4C70.8615 146.726 62.0398 129.927 39.7378 136.063C52.3213 147.108 53.8506 165.03 64.6641 153.4Z" fill="#E0E0E0"/>
<path d="M56.7061 143.658C54.5632 141.048 52.0333 138.112 52.6469 135.006C53.2605 131.9 54.7945 129.592 53.5909 126.288C52.1277 122.323 52.4109 117.594 54.8842 117.991C57.3574 118.387 60.1281 121.295 60.0762 125.122C60.0337 128.842 62.4362 130.031 64.749 132.009C67.0618 133.987 67.8783 136.88 68.289 139.712C69.0064 144.21 74.8356 143.361 76.3838 147.264C77.9838 151.04 74.7931 156.067 69.6908 157.223C64.5885 158.38 60.9541 159.111 57.4754 155.118C53.9402 150.913 59.8779 147.396 56.7061 143.658Z" fill="#F5F5F5"/>
<path d="M74.2597 180.493H55.0918L53.6475 154.382H75.704L74.2597 180.493Z" fill="#EBEBEB"/>
<path d="M77.1342 153.848H52.2173V156.662H77.1342V153.848Z" fill="#EBEBEB"/>
<path d="M187.261 176.948H200.156V121.03H187.261V176.948Z" fill="#EBEBEB"/>
<path d="M86.2107 180.493H197.678V176.948H86.2107V180.493Z" fill="#EBEBEB"/>
<path d="M187.261 121.03H83.7375V176.948H187.261V121.03Z" fill="#F5F5F5"/>
<path d="M182.192 127.912H88.8069V146.254H182.192V127.912Z" fill="#EBEBEB"/>
<path d="M182.192 151.724H88.8069V170.066H182.192V151.724Z" fill="#EBEBEB"/>
<path d="M106.45 138.338H164.549C164.881 138.337 165.2 138.205 165.435 137.969C165.67 137.734 165.803 137.416 165.804 137.083C165.804 136.75 165.672 136.43 165.437 136.193C165.201 135.957 164.882 135.824 164.549 135.823H106.45C106.117 135.824 105.797 135.957 105.562 136.193C105.327 136.43 105.195 136.75 105.195 137.083C105.196 137.416 105.329 137.734 105.564 137.969C105.799 138.205 106.117 138.337 106.45 138.338Z" fill="#F5F5F5"/>
<path d="M106.45 162.151H164.549C164.881 162.15 165.2 162.017 165.435 161.782C165.67 161.547 165.803 161.228 165.804 160.895C165.803 160.563 165.67 160.244 165.435 160.009C165.2 159.774 164.881 159.641 164.549 159.64H106.45C106.117 159.641 105.799 159.774 105.564 160.009C105.329 160.244 105.196 160.563 105.195 160.895C105.196 161.228 105.329 161.547 105.564 161.782C105.799 162.017 106.117 162.15 106.45 162.151Z" fill="#F5F5F5"/>
<path d="M158.682 112.869C158.682 112.869 173.455 126.869 182.225 112.813C182.225 112.813 179.893 108.296 177.434 107.909C174.975 107.522 174.876 111.817 172.714 110.49C170.552 109.164 168.027 104.628 166.649 107.05C165.271 109.471 163.378 106.021 161.315 105.822C159.253 105.624 158.682 112.869 158.682 112.869Z" fill="#F5F5F5"/>
<path d="M183.164 111.902C183.164 111.902 182.843 121.03 170.392 121.03C157.941 121.03 157.62 111.902 157.62 111.902H183.164Z" fill="#EBEBEB"/>
<path d="M120.176 107.144H127.346V121.03H106.294C106.294 117.348 107.757 113.817 110.36 111.213C112.963 108.609 116.494 107.145 120.176 107.144Z" fill="#F5F5F5"/>
<path d="M133.958 107.144H127.346V121.03H133.958V107.144Z" fill="#E6E6E6"/>
<path d="M118 201.808C168.543 201.808 209.516 199.416 209.516 196.465C209.516 193.514 168.543 191.122 118 191.122C67.457 191.122 26.4839 193.514 26.4839 196.465C26.4839 199.416 67.457 201.808 118 201.808Z" fill="#F5F5F5"/>
<path d="M102.896 93.3428L102.585 93.8148C102.49 93.9516 102.391 94.0744 102.297 94.2018C102.103 94.4567 101.9 94.6738 101.697 94.9334C101.287 95.4054 100.871 95.8774 100.428 96.2928C99.5404 97.1452 98.594 97.9339 97.5955 98.6528C96.5983 99.3714 95.5492 100.015 94.4567 100.579C93.9045 100.848 93.357 101.126 92.7859 101.353L91.9315 101.692L91.6908 101.782C91.5587 101.825 91.4359 101.872 91.2896 101.905C91.0042 101.976 90.7106 102.009 90.4164 102.004C89.8556 102 89.3039 101.863 88.8069 101.603C88.4073 101.394 88.0401 101.129 87.7166 100.815C87.2042 100.309 86.7613 99.7377 86.3997 99.1153C85.7815 98.0377 85.2769 96.8988 84.894 95.7169C84.1515 93.4889 83.6205 91.1958 83.3081 88.8682L85.2811 88.434C85.6398 89.4676 86.0079 90.5344 86.4139 91.5633C86.8198 92.5923 87.2257 93.6165 87.6977 94.5888C88.1274 95.5274 88.6391 96.4261 89.227 97.2745C89.4606 97.6262 89.7417 97.9439 90.0624 98.2185C90.1546 98.2941 90.2581 98.3547 90.3692 98.3979C90.4353 98.3979 90.4306 98.3979 90.3975 98.3979H90.3645L90.5203 98.3224L91.2235 97.9825C91.6955 97.756 92.1439 97.5105 92.5971 97.2368C93.4909 96.7012 94.3544 96.1166 95.1836 95.4856C96.0018 94.8426 96.779 94.149 97.5106 93.4088C97.8787 93.0501 98.228 92.6678 98.5631 92.2808C98.7283 92.0872 98.8935 91.8937 99.0351 91.7002L99.2617 91.4123L99.4458 91.1668L102.896 93.3428Z" fill="#B97964"/>
<path d="M97.1802 93.1398L99.5733 98.8794L97.841 99.9602L95.1506 94.7541L97.1802 93.1398Z" fill="#263238"/>
<path d="M103.953 88.3066C100.05 88.2546 96.0852 93.1965 95.9861 93.3192L99.073 100.579C99.073 100.579 105.941 95.0042 106.285 92.8236C106.644 90.5533 106.427 88.3396 103.953 88.3066Z" fill="#E69545"/>
<path opacity="0.3" d="M103.953 88.3066C100.05 88.2546 96.0852 93.1965 95.9861 93.3192L99.073 100.579C99.073 100.579 105.941 95.0042 106.285 92.8236C106.644 90.5533 106.427 88.3396 103.953 88.3066Z" fill="black"/>
<path d="M84.96 87.6835L82.2602 85.5831L81.7126 89.7178C81.7126 89.7178 84.337 90.7468 85.7341 89.8547L85.6963 89.0995C85.6823 88.8245 85.6092 88.5558 85.4822 88.3114C85.3551 88.0671 85.1771 87.853 84.96 87.6835Z" fill="#B97964"/>
<path d="M78.6636 85.3754L78.8335 88.5142L81.7268 89.7178L82.2744 85.583L78.6636 85.3754Z" fill="#B97964"/>
<path d="M137.824 87.3483L141.997 86.3052L139.08 83.3269C139.08 83.3269 136.375 84.4314 137.036 86.7914L137.824 87.3483Z" fill="#B97964"/>
<path d="M144.069 85.5643L143.724 82.2886L139.056 83.327L141.973 86.3053L144.069 85.5643Z" fill="#B97964"/>
<path d="M124.216 192.326L120.332 192.699L117.089 183.533L120.974 183.155L124.216 192.326Z" fill="#B97964"/>
<path d="M165.8 173.054L162.939 175.829L155.585 170.09L158.45 167.315L165.8 173.054Z" fill="#B97964"/>
<path d="M162.113 175.291L164.313 171.388C164.35 171.321 164.41 171.27 164.482 171.244C164.554 171.218 164.633 171.219 164.704 171.246L168.046 172.54C168.129 172.576 168.203 172.628 168.264 172.695C168.325 172.761 168.371 172.84 168.399 172.925C168.428 173.011 168.438 173.101 168.429 173.191C168.42 173.281 168.393 173.368 168.348 173.446C167.56 174.796 167.112 175.405 166.144 177.123C165.549 178.18 164.388 180.601 163.567 182.06C162.746 183.518 161.259 182.782 161.471 182.102C162.415 179.049 162.255 177.345 162 175.995C161.953 175.754 161.993 175.505 162.113 175.291Z" fill="#263238"/>
<path d="M119.558 191.509H124.278C124.362 191.511 124.444 191.54 124.512 191.592C124.579 191.644 124.627 191.716 124.651 191.797L125.68 195.54C125.706 195.629 125.71 195.722 125.694 195.813C125.677 195.903 125.639 195.989 125.582 196.062C125.526 196.135 125.454 196.194 125.37 196.234C125.287 196.273 125.196 196.293 125.104 196.291C123.447 196.262 122.64 196.163 120.558 196.163C119.279 196.163 115.111 196.3 113.341 196.3C111.571 196.3 111.25 194.549 111.968 194.412C115.178 193.699 117.887 192.722 118.873 191.788C119.056 191.609 119.302 191.508 119.558 191.509Z" fill="#263238"/>
<path d="M117.094 183.533L118.76 188.262H122.781L120.978 183.155L117.094 183.533Z" fill="#A76755"/>
<path d="M158.455 167.315L155.59 170.095L159.38 173.049L162.245 170.274L158.455 167.315Z" fill="#A76755"/>
<path d="M100.154 89.5667C100.154 89.5667 98.5491 90.7892 109.363 111.892L124.778 106.913C122.494 100.725 121.238 96.8591 120.058 83.0154C117.772 83.2683 115.506 83.6864 113.28 84.2662C110.9 84.8652 108.562 85.6205 106.28 86.5271C103.335 87.792 100.154 89.5667 100.154 89.5667Z" fill="#E69545"/>
<path opacity="0.3" d="M100.154 89.5667C100.154 89.5667 98.5491 90.7892 109.363 111.892L124.778 106.913C122.494 100.725 121.238 96.8591 120.058 83.0154C117.772 83.2683 115.506 83.6864 113.28 84.2662C110.9 84.8652 108.562 85.6205 106.28 86.5271C103.335 87.792 100.154 89.5667 100.154 89.5667Z" fill="black"/>
<path d="M110.019 76.6057C110.302 79.0035 111.194 83.2704 113.257 84.2663C113.257 84.2663 113.375 86.749 109.193 88.0989C104.591 89.5857 106.257 86.5272 106.257 86.5272C108.574 85.1112 107.904 83.2704 106.903 81.6656L110.019 76.6057Z" fill="#B97964"/>
<path d="M102.283 88.4245C103.42 87.8345 104.869 87.1171 106.257 86.5365C108.541 85.6133 110.888 84.8546 113.28 84.2662C114.625 83.8981 115.985 83.6243 117.132 83.4308C117.24 83.7517 116.915 84.5825 116.117 85.7294C113.592 87.8251 108.206 90.5486 104.237 90.4494C102.5 89.8028 102.065 89.1184 102.283 88.4245Z" fill="#B97964"/>
<path d="M116.112 85.7294C114.398 88.0277 112.348 90.0562 110.033 91.7474C108.061 91.5073 106.118 91.0725 104.232 90.4494C108.183 90.5485 113.568 87.8251 116.112 85.7294Z" fill="#263238"/>
<path d="M108.749 78.6683L106.903 81.6561C107.144 82.0285 107.351 82.4218 107.522 82.8314C108.437 82.383 109.603 81.0567 109.381 79.9994C109.25 79.5222 109.036 79.0718 108.749 78.6683Z" fill="#A76755"/>
<path d="M110.953 72.1783C111.189 76.129 111.378 77.7951 109.641 80.0513C107.031 83.4402 102.127 82.8833 100.711 79.0695C99.4411 75.6475 99.2664 69.7617 102.915 67.7415C103.717 67.291 104.62 67.0527 105.54 67.0492C106.459 67.0457 107.365 67.2771 108.17 67.7215C108.975 68.1659 109.653 68.8085 110.14 69.5885C110.627 70.3684 110.907 71.2599 110.953 72.1783Z" fill="#B97964"/>
<path d="M118.756 65.098C119.648 61.1733 117.19 57.2683 113.265 56.3759C109.341 55.4835 105.436 57.9417 104.543 61.8664C103.651 65.7911 106.109 69.6961 110.034 70.5885C113.958 71.4809 117.863 69.0227 118.756 65.098Z" fill="#263238"/>
<path d="M109.83 66.6465C111.331 67.6377 112.077 69.1575 111.496 70.0401C110.915 70.9228 109.226 70.8378 107.72 69.8466C106.214 68.8554 105.473 67.3356 106.054 66.4529C106.634 65.5703 108.324 65.6553 109.83 66.6465Z" fill="#E69545"/>
<path opacity="0.6" d="M109.83 66.6465C111.331 67.6377 112.077 69.1575 111.496 70.0401C110.915 70.9228 109.226 70.8378 107.72 69.8466C106.214 68.8554 105.473 67.3356 106.054 66.4529C106.634 65.5703 108.324 65.6553 109.83 66.6465Z" fill="#FAFAFA"/>
<path d="M109.032 74.8735C109.424 73.9672 108.06 71.2768 108.352 70.2715C107.569 69.5399 99.6252 72.1264 100.267 70.2384C100.881 68.4259 102.816 66.0234 107.234 67.0288C111.954 68.105 112.364 72.1878 111.836 73.4905C111.307 74.7932 110.557 76.1479 110.557 76.1479L109.032 74.8735Z" fill="#263238"/>
<path d="M111.992 75.6428C112.001 76.4073 111.71 77.145 111.18 77.696C110.467 78.4182 109.608 77.899 109.386 76.9644C109.183 76.1243 109.315 74.7319 110.231 74.3637C110.433 74.2851 110.651 74.2584 110.866 74.2862C111.081 74.3139 111.285 74.3952 111.461 74.5225C111.636 74.6498 111.776 74.8191 111.869 75.0149C111.962 75.2106 112.004 75.4266 111.992 75.6428Z" fill="#B97964"/>
<path d="M109.362 111.892C109.362 111.892 102.216 146.745 106.2 158.238C110.344 170.194 117.089 186.884 117.089 186.884L123.39 186.525C123.39 186.525 118.198 165.436 116.919 155.911C115.168 142.78 122.668 107.616 122.668 107.616L109.362 111.892Z" fill="#E69545"/>
<path opacity="0.6" d="M109.362 111.892C109.362 111.892 102.216 146.745 106.2 158.238C110.344 170.194 117.089 186.884 117.089 186.884L123.39 186.525C123.39 186.525 118.198 165.436 116.919 155.911C115.168 142.78 122.668 107.616 122.668 107.616L109.362 111.892Z" fill="#FAFAFA"/>
<path d="M123.886 186.676L116.594 187.096L115.423 184.226L123.466 183.391L123.886 186.676Z" fill="#E69545"/>
<path opacity="0.2" d="M123.886 186.676L116.594 187.096L115.423 184.226L123.466 183.391L123.886 186.676Z" fill="black"/>
<path d="M116.919 114.573C115.824 118.623 116.74 124.693 118.807 128.95C119.312 125.646 119.85 122.446 120.36 119.581C119.298 117.528 118.128 115.706 116.919 114.573Z" fill="#E69545"/>
<path opacity="0.4" d="M116.919 114.573C115.824 118.623 116.74 124.693 118.807 128.95C119.312 125.646 119.85 122.446 120.36 119.581C119.298 117.528 118.128 115.706 116.919 114.573Z" fill="#FAFAFA"/>
<path d="M113.431 110.576C113.431 110.576 124.042 135.936 131.07 149.86C136.734 161.122 157.752 172.908 157.752 172.908L161.528 168.905C161.528 168.905 145.82 154.958 141.902 147.321C129.366 122.876 131.943 112.199 124.787 106.913L113.431 110.576Z" fill="#E69545"/>
<path opacity="0.6" d="M113.431 110.576C113.431 110.576 124.042 135.936 131.07 149.86C136.734 161.122 157.752 172.908 157.752 172.908L161.528 168.905C161.528 168.905 145.82 154.958 141.902 147.321C129.366 122.876 131.943 112.199 124.787 106.913L113.431 110.576Z" fill="#FAFAFA"/>
<path d="M162.231 168.334L157.039 173.852L153.754 172.124L159.734 166.026L162.231 168.334Z" fill="#E69545"/>
<path opacity="0.2" d="M162.231 168.334L157.039 173.852L153.754 172.124L159.734 166.026L162.231 168.334Z" fill="black"/>
<path d="M124.717 105.936L125.854 107.092C125.944 107.182 125.854 107.333 125.675 107.389L109.509 112.581C109.367 112.629 109.23 112.581 109.193 112.511L108.612 111.18C108.57 111.085 108.664 110.967 108.815 110.915L124.424 105.879C124.474 105.862 124.527 105.859 124.578 105.869C124.629 105.879 124.677 105.902 124.717 105.936Z" fill="#263238"/>
<path d="M123.192 108.357L123.607 108.225C123.692 108.197 123.74 108.131 123.721 108.083L122.947 106.351C122.947 106.304 122.833 106.285 122.753 106.309L122.333 106.446C122.253 106.446 122.201 106.535 122.224 106.587L122.999 108.315C123.013 108.367 123.098 108.385 123.192 108.357Z" fill="#E69545"/>
<path opacity="0.6" d="M123.192 108.357L123.607 108.225C123.692 108.197 123.74 108.131 123.721 108.083L122.947 106.351C122.947 106.304 122.833 106.285 122.753 106.309L122.333 106.446C122.253 106.446 122.201 106.535 122.224 106.587L122.999 108.315C123.013 108.367 123.098 108.385 123.192 108.357Z" fill="#FAFAFA"/>
<path d="M110.731 112.379L111.151 112.242C111.232 112.213 111.284 112.152 111.26 112.1L110.486 110.373C110.462 110.321 110.377 110.302 110.292 110.33L109.872 110.462C109.792 110.491 109.74 110.552 109.764 110.604L110.538 112.331C110.561 112.383 110.646 112.402 110.731 112.379Z" fill="#E69545"/>
<path opacity="0.6" d="M110.731 112.379L111.151 112.242C111.232 112.213 111.284 112.152 111.26 112.1L110.486 110.373C110.462 110.321 110.377 110.302 110.292 110.33L109.872 110.462C109.792 110.491 109.74 110.552 109.764 110.604L110.538 112.331C110.561 112.383 110.646 112.402 110.731 112.379Z" fill="#FAFAFA"/>
<path d="M116.957 110.368L117.372 110.231C117.457 110.231 117.509 110.141 117.486 110.089L116.712 108.362C116.688 108.31 116.598 108.291 116.518 108.319L116.098 108.456C116.018 108.48 115.966 108.546 115.989 108.593L116.763 110.325C116.787 110.352 116.818 110.371 116.853 110.379C116.888 110.386 116.924 110.383 116.957 110.368Z" fill="#E69545"/>
<path opacity="0.6" d="M116.957 110.368L117.372 110.231C117.457 110.231 117.509 110.141 117.486 110.089L116.712 108.362C116.688 108.31 116.598 108.291 116.518 108.319L116.098 108.456C116.018 108.48 115.966 108.546 115.989 108.593L116.763 110.325C116.787 110.352 116.818 110.371 116.853 110.379C116.888 110.386 116.924 110.383 116.957 110.368Z" fill="#FAFAFA"/>
<path d="M105.138 74.0002C105.176 74.3164 105.039 74.5996 104.831 74.6232C104.624 74.6468 104.421 74.4108 104.383 74.0899C104.345 73.7689 104.482 73.4904 104.69 73.4668C104.897 73.4432 105.1 73.6792 105.138 74.0002Z" fill="#263238"/>
<path d="M101.527 74.4392C101.57 74.7602 101.428 75.0386 101.221 75.0622C101.013 75.0858 100.81 74.8498 100.772 74.5336C100.734 74.2173 100.871 73.9341 101.079 73.9058C101.287 73.8775 101.48 74.1041 101.527 74.4392Z" fill="#263238"/>
<path d="M101.173 73.9153L100.38 73.7878C100.38 73.7878 100.848 74.3401 101.173 73.9153Z" fill="#263238"/>
<path d="M102.552 74.8734C102.354 75.6358 102.054 76.3679 101.659 77.0493C101.837 77.1441 102.033 77.1999 102.234 77.2129C102.435 77.226 102.637 77.1959 102.825 77.1248L102.552 74.8734Z" fill="#A24E3F"/>
<path d="M104.09 78.2435C104.067 78.2437 104.045 78.2357 104.028 78.221C104.011 78.2062 103.999 78.1857 103.996 78.1632C103.994 78.1379 104.002 78.1128 104.018 78.0928C104.033 78.0728 104.056 78.0592 104.081 78.0547C104.478 78.015 104.861 77.8825 105.198 77.6677C105.535 77.4528 105.817 77.1618 106.021 76.818C106.026 76.8064 106.033 76.7959 106.042 76.7872C106.052 76.7785 106.062 76.7718 106.074 76.7673C106.086 76.7629 106.099 76.761 106.112 76.7616C106.124 76.7622 106.137 76.7653 106.148 76.7708C106.159 76.7763 106.169 76.784 106.178 76.7934C106.186 76.8029 106.192 76.8138 106.196 76.8257C106.2 76.8375 106.202 76.85 106.201 76.8625C106.2 76.875 106.196 76.8871 106.191 76.8983C105.976 77.2733 105.675 77.5912 105.312 77.8254C104.948 78.0595 104.534 78.2029 104.104 78.2435H104.09Z" fill="#263238"/>
<path d="M105.587 72.8674C105.541 72.8668 105.498 72.8501 105.464 72.8202C105.289 72.6587 105.079 72.5415 104.85 72.4782C104.621 72.415 104.38 72.4076 104.147 72.4567C104.123 72.4639 104.097 72.4661 104.072 72.4633C104.047 72.4605 104.023 72.4527 104.001 72.4404C103.979 72.4281 103.96 72.4115 103.944 72.3916C103.929 72.3717 103.918 72.3489 103.911 72.3246C103.904 72.3007 103.902 72.2756 103.905 72.2509C103.907 72.2262 103.915 72.2023 103.928 72.1806C103.94 72.159 103.957 72.1401 103.976 72.1251C103.996 72.1101 104.019 72.0993 104.043 72.0933C104.336 72.029 104.64 72.0353 104.929 72.1116C105.219 72.1879 105.486 72.3321 105.709 72.5322C105.727 72.5498 105.741 72.5707 105.751 72.5938C105.761 72.6169 105.766 72.6417 105.766 72.6668C105.766 72.6918 105.761 72.7166 105.751 72.7397C105.741 72.7628 105.727 72.7837 105.709 72.8013C105.678 72.8378 105.634 72.8613 105.587 72.8674Z" fill="#263238"/>
<path d="M99.6628 72.976C99.6349 72.9826 99.6058 72.9826 99.5779 72.976C99.5343 72.9519 99.5017 72.9121 99.4867 72.8646C99.4718 72.8171 99.4757 72.7657 99.4976 72.7211C99.6268 72.4512 99.8183 72.2159 100.056 72.0345C100.294 71.8531 100.572 71.7309 100.866 71.678C100.916 71.6726 100.965 71.687 101.004 71.7179C101.043 71.7488 101.068 71.7939 101.074 71.8432C101.077 71.868 101.076 71.8932 101.069 71.9174C101.063 71.9416 101.051 71.9642 101.036 71.984C101.021 72.0037 101.001 72.0202 100.98 72.0325C100.958 72.0448 100.934 72.0527 100.909 72.0556C100.676 72.099 100.457 72.1974 100.27 72.3428C100.082 72.4881 99.9326 72.6761 99.8328 72.891C99.8145 72.9189 99.7891 72.9415 99.7593 72.9564C99.7294 72.9713 99.6961 72.9781 99.6628 72.976Z" fill="#263238"/>
<path d="M123.192 86.7017L123.371 86.9283L123.593 87.1973C123.744 87.3767 123.9 87.5608 124.065 87.7401C124.391 88.1036 124.731 88.4623 125.094 88.8021C125.806 89.4999 126.558 90.1555 127.346 90.7657C128.146 91.3718 128.976 91.9373 129.833 92.4601C130.263 92.7197 130.702 92.9652 131.145 93.2059L131.82 93.5505L132.146 93.7157C132.226 93.7534 132.306 93.7912 132.382 93.8195C132.623 93.9199 132.881 93.9728 133.142 93.9753C133.382 93.9615 133.612 93.876 133.803 93.7298C134.435 93.2055 134.935 92.5392 135.261 91.7852C135.699 90.876 136.052 89.9278 136.314 88.9532C136.606 87.9591 136.847 86.9509 137.036 85.9324L139.051 86.0598C139.114 88.3834 138.782 90.7008 138.07 92.9133C137.868 93.5164 137.607 94.0982 137.291 94.6502C136.94 95.2794 136.487 95.8457 135.95 96.3258C135.311 96.8935 134.53 97.2769 133.689 97.435C132.873 97.5775 132.034 97.5192 131.244 97.2651C131.06 97.2132 130.89 97.1471 130.716 97.081L130.305 96.9111L129.503 96.576C128.969 96.3353 128.445 96.104 127.931 95.8113C126.898 95.2665 125.903 94.6531 124.953 93.9753C124.001 93.2888 123.094 92.5415 122.239 91.738C121.814 91.3321 121.403 90.9025 121.002 90.4589C120.804 90.2323 120.606 89.9869 120.417 89.7697L120.129 89.3969C120.03 89.2647 119.954 89.1609 119.822 88.9721L123.192 86.7017Z" fill="#B97964"/>
<path d="M126.539 89.1891L123.584 94.1498L122.144 92.7905L124.872 87.8203L126.539 89.1891Z" fill="#263238"/>
<path d="M120.077 83.0154C121.776 82.9871 125.901 87.8581 125.901 87.8581L122.314 94.1027C122.314 94.1027 117.745 90.0765 117.75 87.8723C117.755 85.5736 118.142 83.072 120.077 83.0154Z" fill="#E69545"/>
<path opacity="0.3" d="M120.077 83.0154C121.776 82.9871 125.901 87.8581 125.901 87.8581L122.314 94.1027C122.314 94.1027 117.745 90.0765 117.75 87.8723C117.755 85.5736 118.142 83.072 120.077 83.0154Z" fill="black"/>
<path d="M161.339 177.411C161.208 177.406 161.082 177.358 160.98 177.274C160.933 177.242 160.895 177.198 160.871 177.147C160.847 177.095 160.837 177.038 160.844 176.981C160.886 176.471 162.165 175.801 162.307 175.726C162.322 175.715 162.34 175.71 162.359 175.71C162.377 175.71 162.395 175.715 162.411 175.726C162.425 175.737 162.435 175.753 162.441 175.77C162.447 175.788 162.448 175.807 162.444 175.825C162.297 176.335 161.972 177.212 161.5 177.368C161.449 177.392 161.395 177.406 161.339 177.411ZM162.194 175.995C161.693 176.278 161.056 176.722 161.032 176.986C161.029 177.011 161.033 177.037 161.045 177.06C161.057 177.083 161.075 177.102 161.098 177.113C161.143 177.156 161.197 177.186 161.257 177.2C161.317 177.215 161.38 177.212 161.438 177.194C161.698 177.118 161.972 176.674 162.194 176.004V175.995Z" fill="#E69545"/>
<path d="M161.165 176.174C160.957 176.192 160.75 176.14 160.575 176.028C160.518 175.979 160.479 175.912 160.466 175.838C160.452 175.764 160.464 175.688 160.499 175.622C160.524 175.553 160.565 175.492 160.619 175.442C160.672 175.392 160.736 175.355 160.806 175.334C161.353 175.15 162.354 175.702 162.396 175.726C162.412 175.734 162.425 175.746 162.434 175.761C162.443 175.776 162.448 175.793 162.448 175.811C162.448 175.827 162.443 175.843 162.435 175.857C162.427 175.871 162.415 175.882 162.401 175.891C162.016 176.078 161.593 176.174 161.165 176.174ZM161.065 175.485C160.998 175.484 160.931 175.494 160.867 175.513C160.824 175.527 160.784 175.55 160.75 175.581C160.717 175.612 160.691 175.65 160.674 175.693C160.626 175.806 160.674 175.853 160.674 175.886C160.886 176.065 161.67 175.99 162.118 175.806C161.791 175.632 161.434 175.523 161.065 175.485Z" fill="#E69545"/>
<path d="M117.462 192.293C117.132 192.321 116.801 192.243 116.518 192.071C116.444 192.017 116.384 191.945 116.342 191.864C116.3 191.782 116.278 191.691 116.277 191.599C116.272 191.549 116.28 191.499 116.301 191.453C116.321 191.407 116.354 191.368 116.395 191.339C116.825 191.047 118.439 191.783 118.755 191.929C118.773 191.938 118.788 191.953 118.798 191.97C118.807 191.988 118.81 192.009 118.807 192.029C118.806 192.048 118.798 192.066 118.785 192.08C118.772 192.095 118.755 192.105 118.736 192.109C118.319 192.213 117.892 192.275 117.462 192.293ZM116.707 191.476C116.643 191.471 116.579 191.484 116.523 191.514C116.509 191.524 116.497 191.537 116.491 191.553C116.484 191.569 116.482 191.587 116.485 191.604C116.487 191.666 116.502 191.726 116.531 191.781C116.56 191.836 116.6 191.883 116.65 191.92C117.023 192.203 117.91 192.095 118.43 192C117.885 191.74 117.304 191.563 116.707 191.476Z" fill="#E69545"/>
<path d="M118.736 192.128H118.699C118.165 191.911 117.089 191.047 117.15 190.598C117.15 190.499 117.226 190.377 117.471 190.348C118.415 190.226 118.812 191.948 118.826 192.019C118.83 192.036 118.829 192.054 118.824 192.07C118.82 192.087 118.81 192.102 118.798 192.114C118.779 192.124 118.758 192.129 118.736 192.128ZM117.556 190.528H117.495C117.396 190.528 117.339 190.57 117.335 190.617C117.302 190.872 118.043 191.561 118.59 191.854C118.472 191.448 118.123 190.528 117.556 190.528Z" fill="#E69545"/>
<path d="M104.784 73.4716L103.991 73.3441C103.991 73.3441 104.458 73.8964 104.784 73.4716Z" fill="#263238"/>
<path d="M75.2558 40.4882C74.4204 41.536 69.8183 42.7679 66.1603 42.4281C64.9001 50.6975 69.3039 60.2178 69.3039 60.2178C69.3039 60.2178 78.8619 59.0802 79.0979 55.1438C79.3339 51.2073 75.2558 40.4882 75.2558 40.4882Z" fill="#E69545"/>
<path opacity="0.4" d="M75.2558 40.4882C74.4204 41.536 69.8183 42.7679 66.1603 42.4281C64.9001 50.6975 69.3039 60.2178 69.3039 60.2178C69.3039 60.2178 78.8619 59.0802 79.0979 55.1438C79.3339 51.2073 75.2558 40.4882 75.2558 40.4882Z" fill="#FAFAFA"/>
<path d="M147.609 34.1964C148.463 35.4 152.801 36.5942 156.156 35.9711C157.955 45.7604 154.622 57.3905 154.622 57.3905C154.622 57.3905 145.716 56.5975 145.182 51.92C144.649 47.2425 147.609 34.1964 147.609 34.1964Z" fill="#E69545"/>
<path opacity="0.4" d="M147.609 34.1964C148.463 35.4 152.801 36.5942 156.156 35.9711C157.955 45.7604 154.622 57.3905 154.622 57.3905C154.622 57.3905 145.716 56.5975 145.182 51.92C144.649 47.2425 147.609 34.1964 147.609 34.1964Z" fill="#FAFAFA"/>
<path d="M84.96 118.977C84.8921 118.987 84.8228 118.983 84.7563 118.967C84.6898 118.95 84.6273 118.92 84.5724 118.878C84.5175 118.837 84.4714 118.785 84.4367 118.726C84.4019 118.667 84.3793 118.601 84.37 118.533L73.16 39.0156C73.1508 38.9453 73.1558 38.874 73.1747 38.8057C73.1936 38.7375 73.2261 38.6737 73.2701 38.6183C73.3141 38.5628 73.3688 38.5167 73.431 38.4828C73.4932 38.4489 73.5615 38.4278 73.632 38.4208C73.7002 38.4115 73.7695 38.4157 73.8361 38.4332C73.9026 38.4507 73.9651 38.4812 74.0199 38.5228C74.0747 38.5645 74.1207 38.6165 74.1554 38.6759C74.1901 38.7354 74.2127 38.801 74.222 38.8692L85.432 118.382C85.4412 118.453 85.4362 118.524 85.4173 118.592C85.3984 118.66 85.3659 118.724 85.3219 118.78C85.2779 118.835 85.2232 118.881 85.161 118.915C85.0988 118.949 85.0305 118.97 84.96 118.977Z" fill="#E69545"/>
<path opacity="0.2" d="M84.96 118.977C84.8921 118.987 84.8228 118.983 84.7563 118.967C84.6898 118.95 84.6273 118.92 84.5724 118.878C84.5175 118.837 84.4714 118.785 84.4367 118.726C84.4019 118.667 84.3793 118.601 84.37 118.533L73.16 39.0156C73.1508 38.9453 73.1558 38.874 73.1747 38.8057C73.1936 38.7375 73.2261 38.6737 73.2701 38.6183C73.3141 38.5628 73.3688 38.5167 73.431 38.4828C73.4932 38.4489 73.5615 38.4278 73.632 38.4208C73.7002 38.4115 73.7695 38.4157 73.8361 38.4332C73.9026 38.4507 73.9651 38.4812 74.0199 38.5228C74.0747 38.5645 74.1207 38.6165 74.1554 38.6759C74.1901 38.7354 74.2127 38.801 74.222 38.8692L85.432 118.382C85.4412 118.453 85.4362 118.524 85.4173 118.592C85.3984 118.66 85.3659 118.724 85.3219 118.78C85.2779 118.835 85.2232 118.881 85.161 118.915C85.0988 118.949 85.0305 118.97 84.96 118.977Z" fill="black"/>
<path d="M138.376 113.068C138.447 113.077 138.518 113.072 138.586 113.053C138.654 113.034 138.718 113.002 138.774 112.958C138.829 112.913 138.875 112.859 138.909 112.797C138.943 112.734 138.964 112.666 138.971 112.596L150.205 33.0825C150.215 33.0143 150.211 32.9448 150.194 32.8779C150.177 32.8111 150.147 32.7483 150.106 32.693C150.065 32.6378 150.013 32.5912 149.954 32.556C149.895 32.5208 149.829 32.4976 149.761 32.4878C149.691 32.4786 149.619 32.4836 149.551 32.5025C149.483 32.5214 149.419 32.5538 149.364 32.5978C149.308 32.6419 149.262 32.6966 149.228 32.7588C149.194 32.8209 149.173 32.8893 149.166 32.9598L137.933 112.473C137.914 112.61 137.95 112.75 138.033 112.861C138.116 112.972 138.239 113.047 138.376 113.068Z" fill="#E69545"/>
<path opacity="0.2" d="M138.376 113.068C138.447 113.077 138.518 113.072 138.586 113.053C138.654 113.034 138.718 113.002 138.774 112.958C138.829 112.913 138.875 112.859 138.909 112.797C138.943 112.734 138.964 112.666 138.971 112.596L150.205 33.0825C150.215 33.0143 150.211 32.9448 150.194 32.8779C150.177 32.8111 150.147 32.7483 150.106 32.693C150.065 32.6378 150.013 32.5912 149.954 32.556C149.895 32.5208 149.829 32.4976 149.761 32.4878C149.691 32.4786 149.619 32.4836 149.551 32.5025C149.483 32.5214 149.419 32.5538 149.364 32.5978C149.308 32.6419 149.262 32.6966 149.228 32.7588C149.194 32.8209 149.173 32.8893 149.166 32.9598L137.933 112.473C137.914 112.61 137.95 112.75 138.033 112.861C138.116 112.972 138.239 113.047 138.376 113.068Z" fill="black"/>
<path d="M72.7118 40.6959L74.8358 56.3097C74.8488 56.4083 74.883 56.503 74.936 56.5872C74.9891 56.6714 75.0598 56.7431 75.1432 56.7974C75.2266 56.8516 75.3208 56.8872 75.4193 56.9016C75.5178 56.916 75.6182 56.9089 75.7137 56.8808C80.462 55.5214 106.866 48.7435 147.425 53.0576C147.597 53.0774 147.77 53.0316 147.91 52.9292C148.05 52.8269 148.147 52.6755 148.18 52.5053C148.944 48.55 150.261 37.2833 150.596 34.3994C150.617 34.2176 150.565 34.0352 150.452 33.8913C150.339 33.7475 150.174 33.6537 149.992 33.63C144.545 32.9409 107.366 28.8204 73.1885 39.9407C73.0339 39.9919 72.9018 40.0952 72.8149 40.2329C72.7279 40.3706 72.6915 40.5343 72.7118 40.6959Z" fill="#E69545"/>
<path opacity="0.6" d="M72.7118 40.6959L74.8358 56.3097C74.8488 56.4083 74.883 56.503 74.936 56.5872C74.9891 56.6714 75.0598 56.7431 75.1432 56.7974C75.2266 56.8516 75.3208 56.8872 75.4193 56.9016C75.5178 56.916 75.6182 56.9089 75.7137 56.8808C80.462 55.5214 106.866 48.7435 147.425 53.0576C147.597 53.0774 147.77 53.0316 147.91 52.9292C148.05 52.8269 148.147 52.6755 148.18 52.5053C148.944 48.55 150.261 37.2833 150.596 34.3994C150.617 34.2176 150.565 34.0352 150.452 33.8913C150.339 33.7475 150.174 33.6537 149.992 33.63C144.545 32.9409 107.366 28.8204 73.1885 39.9407C73.0339 39.9919 72.9018 40.0952 72.8149 40.2329C72.7279 40.3706 72.6915 40.5343 72.7118 40.6959Z" fill="#FAFAFA"/>
<path d="M79.5227 43.4241L81.76 42.9521L83.3412 47.0632L83.7424 42.5509L85.9749 42.0789L87.9337 46.1098L87.9621 41.6777L90.1899 41.2057L89.8973 49.1825L87.5892 49.6545L85.3755 45.1138L84.9035 50.1926L82.5954 50.6646L79.5227 43.4241Z" fill="#FAFAFA"/>
<path d="M91.2849 41.1206L97.6522 40.1766L97.8599 41.8192L93.8762 42.4045L94.032 43.6317L97.7277 43.0889L97.926 44.6606L94.2302 45.2034L94.4001 46.728L98.5018 46.1286L98.7236 47.875L92.2384 48.819L91.2849 41.1206Z" fill="#FAFAFA"/>
<path d="M99.2712 39.9926L101.66 39.733L102.169 45.5717L105.893 45.1705L106.063 47.0585L99.9273 47.7193L99.2712 39.9926Z" fill="#FAFAFA"/>
<path d="M111.892 43.4523L114.021 43.9243C113.933 44.4696 113.732 44.9904 113.431 45.4536C113.155 45.8706 112.778 46.2114 112.336 46.4448C111.806 46.7002 111.23 46.8448 110.642 46.8696C109.94 46.9444 109.23 46.8688 108.56 46.6478C107.98 46.397 107.487 45.9798 107.144 45.4489C106.692 44.7545 106.448 43.9456 106.441 43.1172C106.317 42.0305 106.629 40.939 107.309 40.0822C107.674 39.6955 108.112 39.3863 108.599 39.173C109.085 38.9597 109.61 38.8467 110.141 38.8409C110.942 38.7362 111.756 38.8847 112.468 39.2657C113.094 39.6816 113.565 40.2921 113.809 41.0026L111.718 41.6257C111.66 41.4439 111.573 41.2732 111.458 41.1206C111.314 40.9492 111.129 40.8162 110.92 40.7336C110.581 40.595 110.203 40.5837 109.856 40.7016C109.509 40.8196 109.217 41.0589 109.032 41.3755C108.803 41.8605 108.716 42.4007 108.782 42.9331C108.823 43.7922 108.98 44.3727 109.254 44.6748C109.396 44.8254 109.572 44.9402 109.768 45.0099C109.963 45.0796 110.172 45.1023 110.377 45.076C110.571 45.0736 110.762 45.0304 110.938 44.949C111.113 44.8677 111.27 44.7501 111.397 44.604C111.658 44.2688 111.829 43.8723 111.892 43.4523Z" fill="#FAFAFA"/>
<path d="M114.894 42.5509C114.857 42.0079 114.928 41.4631 115.103 40.9478C115.278 40.4325 115.554 39.9571 115.914 39.5489C116.3 39.169 116.758 38.8705 117.262 38.6711C117.765 38.4716 118.303 38.3753 118.845 38.3878C119.382 38.3343 119.925 38.3904 120.44 38.5526C120.955 38.7149 121.432 38.98 121.842 39.3318C122.21 39.714 122.496 40.1675 122.682 40.6643C122.867 41.1611 122.95 41.6907 122.923 42.2205C122.964 42.9957 122.818 43.7694 122.498 44.4766C122.209 45.0657 121.755 45.5578 121.191 45.8926C120.534 46.2591 119.795 46.4509 119.043 46.4496C118.301 46.5018 117.556 46.3822 116.867 46.1003C116.275 45.8279 115.78 45.3796 115.451 44.8165C115.064 44.1255 114.872 43.3425 114.894 42.5509ZM117.287 42.4848C117.246 43.0826 117.412 43.6764 117.759 44.1651C117.907 44.3316 118.091 44.4611 118.298 44.5431C118.504 44.6251 118.727 44.6573 118.949 44.6371C119.175 44.6422 119.4 44.596 119.606 44.502C119.812 44.408 119.994 44.2686 120.138 44.0943C120.467 43.5454 120.608 42.904 120.539 42.2677C120.58 41.6978 120.412 41.1326 120.067 40.677C119.917 40.5111 119.729 40.3822 119.521 40.3004C119.312 40.2185 119.087 40.1859 118.864 40.205C118.642 40.2043 118.423 40.2536 118.223 40.3492C118.022 40.4448 117.846 40.5843 117.707 40.7573C117.375 41.267 117.227 41.8747 117.287 42.4801V42.4848Z" fill="#FAFAFA"/>
<path d="M124.377 38.3689H127.525L128.611 43.1219L129.946 38.4019L133.095 38.4303L132.882 46.2183H130.919L131.079 40.2758L129.408 46.2041H127.634L126.288 40.2475L126.128 46.1899H124.164L124.377 38.3689Z" fill="#FAFAFA"/>
<path d="M134.822 38.5059L141.227 38.7938L141.128 40.4552L137.116 40.2759L137.036 41.5361L140.755 41.7013L140.656 43.2636L136.937 43.0984L136.842 44.6371L140.968 44.8165L140.854 46.5818L134.331 46.2891L134.822 38.5059Z" fill="#FAFAFA"/>
</svg>
